# xmcd CD database file
#
# Track frame offsets:
#	150
#	11996
#	22602
#	34021
#	47756
#	56505
#	70410
#	81754
#	98532
#	112346
#	128652
#	138371
#	153522
#	163760
#	175121
#	185240
#	200140
#	214558
#	226443
#	238169
#
# Disc length: 3334 seconds
#
# Revision: 0
# Processed by: cddbd v1.5.2PL0 Copyright (c) Steve Scherf et al.
# Submitted via: CDex 1.70beta2
#
DISCID=180d0414
DTITLE=Hank Snow - I'm Movin' On CD 4
DYEAR=1900
DGENRE=Country
TTITLE0=Tangled Mind
TTITLE1=Calypso Sweetheart
TTITLE2=Marriage And Divorce
TTITLE3=The New Blue Velvet Band
TTITLE4=A Woman Captured Me
TTITLE5=The Convict And The Rose
TTITLE6=I'm Hurtin' All Over
TTITLE7=Prisoner's Prayer
TTITLE8=Put My Little Shoes Away
TTITLE9=Old Shep
TTITLE10=I Wish I Was The Moon
TTITLE11=The Letter Edged In Black
TTITLE12=I'm Here To Get My Baby Out Of Jail
TTITLE13=My Lucky Friend
TTITLE14=Big Wheels
TTITLE15=Little Buddy
TTITLE16=Nobody's Child
TTITLE17=Whispering Rain
TTITLE18=The Party Of The Second Part
TTITLE19=The Last Ride
EXTD=
EXTT0=
EXTT1=
EXTT2=
EXTT3=
EXTT4=
EXTT5=
EXTT6=
EXTT7=
EXTT8=
EXTT9=
EXTT10=
EXTT11=
EXTT12=
EXTT13=
EXTT14=
EXTT15=
EXTT16=
EXTT17=
EXTT18=
EXTT19=
PLAYORDER=
